HIERARCHY
ROOT root
{
	OFFSET 0.000000 0.000000 0.000000
	CHANNELS 6 Xposition Yposition Zposition Zrotation Yrotation Xrotation
	JOINT lhip
	{
		OFFSET 0.058581 -0.082280 -0.017664
		CHANNELS 3 Zrotation Yrotation Xrotation
		JOINT lknee
		{
			OFFSET 0.043451 -0.386469 0.008037
			CHANNELS 3 Zrotation Yrotation Xrotation
			JOINT lankle
			{
				OFFSET -0.014790 -0.426874 -0.037428
				CHANNELS 3 Zrotation Yrotation Xrotation
				JOINT ltoe
				{
					OFFSET 0.041054 -0.060286 0.122042
					CHANNELS 3 Zrotation Yrotation Xrotation
					End Site
					{
						OFFSET 0.000000 0.000000 0.000000
					}
				}
			}
		}
	}
	JOINT rhip
	{
		OFFSET -0.060310 -0.090513 -0.013543
		CHANNELS 3 Zrotation Yrotation Xrotation
		JOINT rknee
		{
			OFFSET -0.043257 -0.383688 -0.004843
			CHANNELS 3 Zrotation Yrotation Xrotation
			JOINT rankle
			{
				OFFSET 0.019056 -0.420046 -0.034562
				CHANNELS 3 Zrotation Yrotation Xrotation
				JOINT rtoe
				{
					OFFSET -0.034840 -0.062106 0.130323
					CHANNELS 3 Zrotation Yrotation Xrotation
					End Site
					{
						OFFSET 0.000000 0.000000 0.000000
					}
				}
			}
		}
	}
	JOINT lowerback
	{
		OFFSET 0.004439 0.124404 -0.038385
		CHANNELS 3 Zrotation Yrotation Xrotation
		JOINT upperback
		{
			OFFSET 0.004488 0.137956 0.026820
			CHANNELS 3 Zrotation Yrotation Xrotation
			JOINT chest
			{
				OFFSET -0.002265 0.056032 0.002855
				CHANNELS 3 Zrotation Yrotation Xrotation
				JOINT lowerneck
				{
					OFFSET -0.013390 0.211636 -0.033468
					CHANNELS 3 Zrotation Yrotation Xrotation
					JOINT upperneck
					{
						OFFSET 0.010113 0.088937 0.050410
						CHANNELS 3 Zrotation Yrotation Xrotation
						End Site
						{
							OFFSET 0.000000 0.000000 0.000000
						}
					}
				}
				JOINT lclavicle
				{
					OFFSET 0.071702 0.114000 -0.018898
					CHANNELS 3 Zrotation Yrotation Xrotation
					JOINT lshoulder
					{
						OFFSET 0.122921 0.045205 -0.019046
						CHANNELS 3 Zrotation Yrotation Xrotation
						JOINT lelbow
						{
							OFFSET 0.255332 -0.015649 -0.022946
							CHANNELS 3 Zrotation Yrotation Xrotation
							JOINT lwrist
							{
								OFFSET 0.265709 0.012698 -0.007375
								CHANNELS 3 Zrotation Yrotation Xrotation
								End Site
								{
									OFFSET 0.000000 0.000000 0.000000
								}
							}
						}
					}
				}
				JOINT rclavicle
				{
					OFFSET -0.082954 0.112472 -0.023707
					CHANNELS 3 Zrotation Yrotation Xrotation
					JOINT rshoulder
					{
						OFFSET -0.113228 0.046853 -0.008472
						CHANNELS 3 Zrotation Yrotation Xrotation
						JOINT relbow
						{
							OFFSET -0.260127 -0.014369 -0.031269
							CHANNELS 3 Zrotation Yrotation Xrotation
							JOINT rwrist
							{
								OFFSET -0.269108 0.006794 -0.006027
								CHANNELS 3 Zrotation Yrotation Xrotation
								End Site
								{
									OFFSET 0.000000 0.000000 0.000000
								}
							}
						}
					}
				}
			}
		}
	}
}
MOTION
Frames: 5
Frame Time: 0.033333
-0.061137 1.371064 1.195417 -90.628445 -1.024976 84.198425 -2.018223 -4.589292 -4.107116 -5.204191 -12.517596 22.176804 0.578011 5.712215 -16.204247 0.000000 -0.000000 0.000000 0.122965 -2.230726 2.103940 2.129236 0.279015 16.725786 2.286273 -4.913668 -14.728820 0.000000 -0.000000 0.000000 2.210939 0.738392 14.644999 1.125605 -2.331287 -0.460150 -1.108339 -1.338664 3.127111 0.185749 4.525728 9.933250 -4.422568 1.163934 19.593405 -29.118178 3.038964 1.796334 -59.516190 -6.967053 9.987715 10.238286 -25.905052 4.338483 -3.070111 -3.591787 -6.066648 27.260086 0.619844 2.530064 52.427144 7.975082 11.619585 -19.020579 27.907897 -13.505158 2.081356 4.129074 -10.060447 
-0.065772 1.372119 1.195385 -89.735026 -1.261456 84.092890 -2.003147 -4.534793 -6.362967 -5.274405 -9.030511 24.929955 1.062022 7.126690 -16.298130 0.000000 -0.000000 0.000000 0.021019 -2.815995 2.550846 1.898578 -0.132611 16.614954 2.143526 -5.008432 -15.163452 0.000000 -0.000000 0.000000 2.433814 1.437988 15.456931 0.963062 -2.135458 -0.664347 -1.187989 -0.955819 3.235874 0.048675 3.727815 9.296505 -4.100857 0.643072 19.423404 -28.995351 2.471962 1.755927 -59.757286 -7.371457 10.153610 9.828435 -26.651937 4.684109 -3.219410 -3.714837 -6.306407 27.067279 1.005975 2.672579 52.649259 7.976695 11.267778 -18.798335 26.724905 -13.873696 2.041099 3.937150 -10.130154 
-0.071859 1.373283 1.195558 -89.185874 -1.558078 84.061219 -1.855087 -4.406402 -8.648589 -5.500667 -6.204914 26.418899 1.527805 7.790349 -16.007365 0.000000 -0.000000 0.000000 -0.169312 -3.245486 3.107460 1.584723 -0.390047 16.419007 1.690717 -4.754698 -15.708874 0.000000 -0.000000 0.000000 2.626478 2.094910 16.172783 0.747348 -1.842112 -0.949653 -1.311458 -0.472416 3.198660 -0.174760 3.118295 9.284118 -3.707435 0.387271 19.564867 -29.088333 2.000976 1.717869 -59.590406 -7.401250 10.234477 9.684780 -27.357436 4.790326 -3.350313 -3.912446 -6.420319 26.934391 1.468268 2.973311 52.891492 7.793714 11.164956 -18.234325 25.671304 -13.497851 2.162306 3.560818 -10.003835 
-0.079348 1.374350 1.195206 -88.578440 -1.879930 84.047130 -1.819489 -4.246770 -10.664818 -5.539649 -4.608642 26.115876 1.267660 7.784304 -15.292330 0.000000 -0.000000 0.000000 -0.531855 -3.739674 3.838848 1.609565 -0.523632 16.126178 1.737943 -4.695474 -16.017553 0.000000 -0.000000 0.000000 2.671435 2.716379 16.905725 0.622501 -1.615546 -1.311963 -1.357809 -0.070521 3.072101 -0.223167 2.856242 9.168111 -3.573120 -0.273147 20.104229 -29.012900 1.951449 1.873211 -59.360466 -7.519113 10.286088 9.571926 -28.255106 4.972446 -3.046670 -4.113950 -5.855919 26.813129 1.656886 2.991476 53.125573 7.671870 11.271338 -17.440440 24.754406 -12.494899 2.458354 3.675281 -8.987890 
-0.088176 1.375268 1.194630 -88.134616 -2.086333 83.826913 -1.639493 -4.120389 -12.031452 -5.532160 -3.468168 24.252215 0.679667 7.665545 -14.783859 0.000000 -0.000000 0.000000 -0.599440 -4.053625 4.706458 1.389788 -0.372323 16.057330 1.493409 -5.141750 -16.351705 0.000000 -0.000000 0.000000 2.685351 3.157979 17.440567 0.547620 -1.492806 -1.278605 -1.333771 -0.062230 3.218554 -0.241266 2.859323 9.377253 -3.767778 -0.412210 20.237173 -29.158208 2.067555 2.246623 -58.932085 -7.693396 10.098002 10.234296 -29.242750 4.610674 -3.168253 -4.135899 -5.596778 27.030847 2.461306 3.433674 52.822720 7.996954 11.654140 -16.400749 24.130823 -11.684223 2.866841 4.028405 -8.330861 
